<svg xmlns="http://www.w3.org/2000/svg" xmlns:xlink="http://www.w3.org/1999/xlink" width="500" height="500" preserveAspectRatio="xMidYMid meet" version="1.0" viewBox="0 0 375 375" zoomAndPan="magnify"><defs><clipPath id="11bec9c96c"><path d="M 114.167969 114.167969 L 261.167969 114.167969 L 261.167969 261.167969 L 114.167969 261.167969 Z M 114.167969 114.167969" clip-rule="nonzero"/></clipPath><clipPath id="6832d80d9d"><path d="M 127.449219 127.449219 L 247.550781 127.449219 L 247.550781 247.550781 L 127.449219 247.550781 Z M 127.449219 127.449219" clip-rule="nonzero"/></clipPath><clipPath id="0d5cb395f8"><path d="M 187.5 127.449219 C 154.332031 127.449219 127.449219 154.332031 127.449219 187.5 C 127.449219 220.664062 154.332031 247.550781 187.5 247.550781 C 220.664062 247.550781 247.550781 220.664062 247.550781 187.5 C 247.550781 154.332031 220.664062 127.449219 187.5 127.449219" clip-rule="nonzero"/></clipPath></defs><g clip-path="url(#11bec9c96c)"><path fill="#9b8b7c" fill-opacity="1" fill-rule="nonzero" d="M 187.667969 261.167969 C 147.136719 261.167969 114.167969 228.195312 114.167969 187.667969 C 114.167969 147.136719 147.136719 114.167969 187.667969 114.167969 C 228.195312 114.167969 261.167969 147.136719 261.167969 187.667969 C 261.167969 228.195312 228.195312 261.167969 187.667969 261.167969 Z M 187.667969 115.46875 C 147.855469 115.46875 115.46875 147.855469 115.46875 187.667969 C 115.46875 227.476562 147.855469 259.863281 187.667969 259.863281 C 227.476562 259.863281 259.863281 227.476562 259.863281 187.667969 C 259.863281 147.855469 227.476562 115.46875 187.667969 115.46875 Z M 187.667969 115.46875"/></g><g clip-path="url(#6832d80d9d)"><g clip-path="url(#0d5cb395f8)"><path fill="#9b8b7c" fill-opacity="1" fill-rule="nonzero" d="M 127.449219 127.449219 L 247.550781 127.449219 L 247.550781 247.550781 L 127.449219 247.550781 Z M 127.449219 127.449219"/></g></g><g fill="#e8e6df" fill-opacity="1"><g><g><path d="M 96.796875 14.25 C 97.148438 14.25 97.503906 14.25 97.859375 14.25 L 97.859375 15.140625 C 96.210938 15.367188 94.375 15.484375 92.34375 15.484375 C 90.320312 15.484375 87.832031 15.039062 84.875 14.15625 C 81.914062 13.28125 79.234375 11.640625 76.828125 9.234375 C 71.898438 4.304688 68.90625 -2.082031 67.84375 -9.9375 L 62.484375 -49.109375 L 44.171875 -7.75 C 42.535156 -4.164062 41.539062 -1.171875 41.1875 1.234375 L 40.296875 1.234375 L 17.515625 -48.3125 L 13.640625 -4.578125 C 13.523438 -3.578125 13.832031 -2.695312 14.5625 -1.9375 C 15.289062 -1.175781 16.097656 -0.796875 16.984375 -0.796875 L 18.390625 -0.796875 L 18.390625 0 L 1.3125 0 L 1.3125 -0.875 L 2.734375 -0.875 C 4.316406 -0.875 5.707031 -1.359375 6.90625 -2.328125 C 8.113281 -3.296875 8.863281 -4.570312 9.15625 -6.15625 L 14.703125 -54.203125 C 9.535156 -64.359375 3.34375 -69.4375 -3.875 -69.4375 C -4.519531 -69.4375 -5.191406 -69.40625 -5.890625 -69.34375 L -5.890625 -70.21875 C -4.304688 -70.632812 -3.015625 -70.84375 -2.015625 -70.84375 C -1.023438 -70.84375 0.0507812 -70.796875 1.21875 -70.703125 C 2.394531 -70.617188 3.773438 -70.34375 5.359375 -69.875 C 6.953125 -69.40625 8.453125 -68.710938 9.859375 -67.796875 C 11.265625 -66.890625 12.492188 -65.953125 13.546875 -64.984375 C 14.609375 -64.015625 15.609375 -62.945312 16.546875 -61.78125 C 18.128906 -59.664062 19.390625 -57.640625 20.328125 -55.703125 L 41.53125 -9.765625 L 65.203125 -62.828125 L 66 -62.828125 L 74.1875 -10.734375 C 75.414062 -2.523438 78.066406 3.6875 82.140625 7.90625 C 86.222656 12.132812 91.109375 14.25 96.796875 14.25 Z M 96.796875 14.25" transform="translate(146.535207, 214.124986)"/></g></g></g></svg>